<?xml version="1.0" standalone="no"?>
<!DOCTYPE svg PUBLIC "-//W3C//DTD SVG 20010904//EN"
 "http://www.w3.org/TR/2001/REC-SVG-20010904/DTD/svg10.dtd">
<svg version="1.0" xmlns="http://www.w3.org/2000/svg"
 width="488.000000pt" height="488.000000pt" viewBox="0 0 488.000000 488.000000"
 preserveAspectRatio="xMidYMid meet">
<metadata>
Created by potrace 1.11, written by Peter Selinger 2001-2013
</metadata>
<g transform="translate(0.000000,488.000000) scale(0.100000,-0.100000)"
fill="#000000" stroke="none">
<path d="M1979 4875 c-2 -1 -31 -6 -64 -9 -33 -3 -85 -10 -115 -17 -30 -6 -68
-13 -85 -16 -56 -9 -259 -74 -345 -110 -262 -108 -532 -297 -729 -509 -62 -67
-241 -295 -241 -307 0 -2 -24 -44 -53 -93 -118 -198 -238 -526 -262 -715 -2
-16 -6 -36 -9 -46 -20 -71 -29 -471 -14 -616 25 -226 122 -541 225 -727 149
-269 343 -496 568 -666 135 -102 347 -220 490 -274 33 -12 69 -26 80 -30 65
-27 293 -85 380 -96 28 -3 52 -8 55 -9 11 -6 226 -19 320 -18 121 0 271 14
376 34 28 5 63 12 79 15 16 3 32 7 35 9 4 2 21 7 38 10 44 7 237 71 297 98
391 173 701 432 920 767 73 112 132 219 169 310 15 36 34 79 41 96 41 90 106
361 120 499 4 33 8 71 11 85 5 32 5 323 -1 370 -3 19 -7 60 -10 90 -38 359
-201 761 -429 1055 -17 22 -38 49 -46 60 -41 54 -275 279 -345 332 -167 126
-350 228 -534 298 -128 49 -314 98 -417 111 -23 2 -53 7 -65 10 -26 7 -435 15
-440 9z"/>
<path d="M4595 2903 c-87 -23 -118 -66 -115 -156 1 -34 2 -76 2 -93 1 -29 4
-31 32 -29 42 5 296 17 320 17 17 -1 18 6 13 81 -8 139 -41 176 -160 182 -40
2 -81 1 -92 -2z m125 -102 c24 -2 40 -16 45 -39 5 -27 -7 -30 -113 -34 -68 -2
-85 0 -92 13 -20 36 44 69 120 63 14 -1 32 -3 40 -3z"/>
<path d="M4476 2454 c-3 -9 -6 -31 -6 -50 0 -32 2 -34 33 -35 33 -1 65 -5 106
-15 20 -4 6 -12 -67 -37 -99 -33 -92 -26 -96 -104 -1 -19 21 -25 134 -38 30
-3 64 -8 75 -10 11 -2 47 -7 80 -11 33 -4 62 -8 65 -8 11 -2 16 86 6 90 -18 6
-68 12 -103 13 -53 2 -38 15 45 42 l77 25 9 48 c4 26 7 48 5 50 -4 4 -65 13
-139 21 -19 2 -48 6 -65 9 -16 3 -55 8 -85 12 -30 3 -58 8 -61 10 -4 2 -10 -3
-13 -12z"/>
<path d="M4368 1935 l-16 -47 139 -104 c186 -138 174 -133 189 -78 13 45 12
46 -15 68 -26 21 -27 24 -16 59 12 34 16 37 51 37 27 0 39 5 43 18 3 9 10 32
15 49 10 30 9 33 -11 31 -12 0 -98 2 -192 6 l-170 7 -17 -46z m210 -60 c3 -2
2 -11 -1 -19 -5 -14 -11 -13 -42 5 -19 12 -35 22 -35 24 0 5 73 -5 78 -10z"/>
<path d="M4196 1540 c-11 -22 -17 -41 -15 -43 14 -11 311 -157 319 -157 5 0
28 38 52 85 l42 84 -24 26 c-13 14 -27 25 -32 25 -4 0 -17 -17 -27 -37 -37
-70 -28 -70 -158 -4 -67 34 -125 61 -129 61 -5 0 -18 -18 -28 -40z"/>
<path d="M4027 1278 c-15 -18 -27 -37 -27 -42 0 -9 154 -241 193 -290 l23 -28
28 40 28 41 -21 29 -20 29 27 33 c28 32 28 33 59 16 l32 -16 30 39 c17 21 31
41 31 44 0 2 -21 12 -47 21 -27 10 -57 22 -68 27 -33 14 -230 89 -235 89 -4 0
-18 -15 -33 -32z m183 -132 c0 -2 -6 -9 -14 -15 -11 -9 -19 -4 -41 25 l-27 36
41 -21 c23 -12 41 -23 41 -25z"/>
<path d="M3772 993 c-40 -36 -72 -69 -72 -73 0 -5 21 -30 46 -56 25 -27 78
-84 117 -126 39 -43 75 -78 80 -78 13 0 157 133 157 146 0 6 -11 21 -24 33
l-24 23 -47 -43 -46 -43 -25 25 -24 25 34 33 34 33 -23 24 c-28 30 -33 30 -67
-3 -28 -27 -28 -27 -48 -7 -20 20 -20 20 19 58 l40 39 -22 28 c-11 16 -23 29
-27 29 -3 0 -38 -30 -78 -67z"/>
<path d="M534 844 c-17 -112 -20 -119 -66 -179 l-47 -63 37 -26 c21 -14 40
-26 43 -26 2 0 25 27 49 60 42 55 52 62 153 106 59 26 107 49 107 53 0 3 -19
19 -42 35 l-41 30 -58 -32 -58 -32 18 63 17 63 -43 32 c-23 18 -44 32 -46 32
-3 0 -13 -52 -23 -116z"/>
<path d="M3500 774 c-47 -31 -91 -59 -98 -63 -10 -6 -9 -14 5 -39 10 -18 21
-32 26 -32 4 0 26 12 50 27 23 14 44 26 47 25 3 -1 6 -46 7 -99 1 -54 2 -111
2 -128 1 -16 10 -41 20 -54 l18 -24 74 48 c147 94 138 85 122 116 -21 42 -29
43 -75 11 -24 -16 -48 -31 -54 -35 -8 -4 -12 31 -13 120 -1 98 -5 132 -18 155
-10 15 -20 28 -23 28 -3 0 -43 -25 -90 -56z"/>
<path d="M899 682 c-8 -14 -46 -86 -85 -159 -76 -141 -76 -137 -18 -166 l30
-16 34 65 c19 35 39 64 45 64 6 0 21 -7 33 -16 l22 -15 -35 -65 -35 -64 33
-20 c17 -11 38 -19 45 -18 8 2 32 37 54 78 22 41 60 111 84 156 l43 80 -44 22
-45 22 -30 -60 -30 -60 -28 17 c-15 9 -28 18 -30 19 -2 1 8 25 22 53 14 28 26
55 26 60 0 6 -17 19 -39 30 l-38 20 -14 -27z"/>
<path d="M3042 531 l-44 -16 6 -60 c4 -33 9 -76 12 -95 4 -29 -2 -21 -41 48
-25 45 -50 82 -54 82 -18 0 -101 -33 -97 -38 2 -4 7 -32 10 -62 4 -30 9 -71
12 -90 l6 -35 -21 33 c-12 18 -21 35 -21 37 0 3 -14 27 -31 55 l-30 49 -42
-16 c-23 -9 -44 -18 -46 -19 -4 -3 165 -282 184 -302 9 -10 20 -10 59 0 l47
12 -6 61 c-4 33 -10 77 -15 99 -11 48 -2 39 44 -49 21 -38 41 -73 45 -78 4 -4
28 0 53 9 l47 15 -4 47 c-9 115 -18 259 -16 280 2 44 -9 51 -57 33z"/>
<path d="M1294 408 c-175 -238 -164 -214 -107 -231 l48 -14 18 28 c21 33 22
33 66 18 31 -11 35 -17 32 -55 -1 -11 5 -27 13 -34 9 -7 16 -10 16 -7 0 3 16
-1 35 -9 l35 -14 1 57 c0 32 2 112 4 178 2 66 1 128 -1 137 -4 14 -57 38 -86
38 -3 0 -37 -42 -74 -92z m72 -70 c-3 -13 -5 -33 -5 -46 -1 -19 -4 -21 -21
-12 -19 10 -19 11 1 45 24 41 31 44 25 13z"/>
<path d="M2529 396 c-2 -2 -29 -6 -61 -10 -31 -3 -74 -8 -95 -12 l-40 -6 7
-47 c4 -25 11 -73 14 -106 9 -79 13 -111 21 -163 l6 -43 59 6 c32 3 80 9 106
13 52 8 51 7 45 70 -1 11 -16 13 -63 10 l-63 -3 -3 33 c-2 21 1 32 10 33 28 1
63 10 70 17 4 4 4 21 0 37 -8 27 -11 29 -53 27 -43 -3 -45 -2 -47 25 -2 30 1
32 96 36 7 0 12 15 12 38 0 34 -10 55 -21 45z"/>
<path d="M1892 337 c-3 -58 -13 -267 -15 -297 -2 -23 2 -25 46 -28 l47 -3 1
43 c0 24 0 63 0 88 l-1 45 41 -90 41 -90 49 -3 c47 -2 49 -2 50 25 0 16 2 48
4 73 6 82 15 260 12 261 -1 0 -21 2 -44 5 -35 5 -43 3 -44 -10 -1 -9 -3 -29
-4 -46 -1 -16 -3 -49 -4 -72 l-2 -43 -25 55 c-13 30 -31 71 -39 90 -14 32 -19
35 -63 37 l-48 2 -2 -42z"/>
</g>
</svg>
